<svg width="16" height="16" viewBox="0 0 16 16" fill="none" xmlns="http://www.w3.org/2000/svg">
<path fill-rule="evenodd" clip-rule="evenodd" d="M6.65499 3.16779e-08C5.60039 0.000137175 4.56093 0.250856 3.62224 0.731495C2.68355 1.21213 1.87252 1.90894 1.25597 2.76448C0.639416 3.62003 0.235 4.60983 0.0760425 5.65232C-0.082915 6.69481 0.00813667 7.76015 0.341694 8.76055C0.675252 9.76095 1.24177 10.6678 1.99456 11.4063C2.74735 12.1448 3.66487 12.6939 4.6715 13.0083C5.67814 13.3227 6.74508 13.3934 7.78441 13.2146C8.82373 13.0358 9.80569 12.6126 10.6494 11.9799C10.6996 12.127 10.7827 12.2646 10.9004 12.3815L14.224 15.7049C14.4215 15.8962 14.6863 16.0022 14.9613 16C15.2363 15.9977 15.4994 15.8874 15.6937 15.6928C15.888 15.4983 15.998 15.2351 16 14.9601C16.0019 14.6852 15.8956 14.4205 15.704 14.2232L12.3804 10.8998C12.2678 10.7867 12.1307 10.7011 11.9797 10.6497C12.7216 9.66085 13.1734 8.48498 13.2845 7.25384C13.3957 6.02269 13.1617 4.78492 12.6089 3.67926C12.0561 2.57359 11.2063 1.64373 10.1546 0.993878C9.10304 0.344029 7.89121 -0.000120554 6.65499 3.16779e-08ZM1.67825 6.65549C1.67825 6.00197 1.80697 5.35485 2.05708 4.75108C2.30718 4.1473 2.67377 3.5987 3.1359 3.13659C3.59803 2.67449 4.14667 2.30792 4.75047 2.05783C5.35428 1.80774 6.00144 1.67902 6.65499 1.67902C7.30855 1.67902 7.9557 1.80774 8.55951 2.05783C9.16332 2.30792 9.71195 2.67449 10.1741 3.13659C10.6362 3.5987 11.0028 4.1473 11.2529 4.75108C11.503 5.35485 11.6317 6.00197 11.6317 6.65549C11.6317 7.97533 11.1074 9.24112 10.1741 10.1744C9.24076 11.1077 7.97491 11.632 6.65499 11.632C5.33508 11.632 4.06922 11.1077 3.1359 10.1744C2.20258 9.24112 1.67825 7.97533 1.67825 6.65549Z" fill="#919191"/>
</svg>
